<?xml version="1.0" standalone="no"?>
<!DOCTYPE svg PUBLIC "-//W3C//DTD SVG 20010904//EN"
 "http://www.w3.org/TR/2001/REC-SVG-20010904/DTD/svg10.dtd">
<svg version="1.0" xmlns="http://www.w3.org/2000/svg"
 width="634.000000pt" height="634.000000pt" viewBox="0 0 634.000000 634.000000"
 preserveAspectRatio="xMidYMid meet">
<metadata>
Created by potrace 1.11, written by Peter Selinger 2001-2013
</metadata>
<g transform="translate(0.000000,634.000000) scale(0.100000,-0.100000)"
fill="#000000" stroke="none">
<path d="M2995 6329 c-82 -4 -188 -12 -235 -19 -133 -18 -394 -76 -520 -116
-231 -73 -557 -214 -544 -236 5 -7 2 -8 -5 -4 -12 8 -173 -78 -179 -95 -2 -5
-8 -9 -14 -9 -6 0 -26 -11 -44 -25 -18 -14 -35 -25 -38 -25 -10 0 -149 -102
-231 -169 -44 -36 -91 -75 -105 -85 -14 -11 -81 -77 -150 -146 -140 -139 -254
-276 -244 -292 4 -6 2 -8 -3 -5 -14 9 -121 -135 -208 -278 -337 -555 -496
-1177 -464 -1812 24 -459 132 -863 340 -1273 68 -135 172 -309 191 -321 5 -3
9 -9 8 -13 -2 -8 164 -231 227 -306 86 -102 246 -258 363 -354 119 -98 264
-206 276 -206 3 0 20 -11 38 -25 18 -14 38 -25 44 -25 6 0 12 -4 14 -9 6 -17
167 -103 179 -95 7 4 10 3 5 -4 -4 -6 34 -30 96 -60 873 -422 1890 -420 2766
5 51 24 90 49 87 54 -4 5 0 6 8 3 15 -5 239 127 351 208 185 134 442 366 541
488 11 14 50 61 86 105 83 102 171 225 162 225 -5 0 -3 4 3 8 10 6 28 34 111
167 35 56 53 97 47 107 -4 6 -3 8 3 5 14 -9 111 190 168 342 163 437 228 846
205 1299 -18 334 -77 617 -202 955 -53 146 -157 359 -171 350 -6 -3 -7 -1 -3
5 16 26 -160 304 -318 502 -178 222 -386 420 -623 592 -121 87 -344 220 -360
214 -8 -3 -12 -2 -8 3 3 5 -36 30 -87 54 -487 237 -1006 342 -1563 316z m455
-550 c184 -17 418 -69 587 -130 46 -17 88 -27 94 -23 7 4 9 3 6 -3 -4 -6 14
-18 41 -28 158 -59 420 -214 612 -361 106 -81 339 -311 425 -419 284 -357 458
-744 542 -1205 25 -134 27 -167 27 -430 1 -324 -8 -409 -74 -666 -99 -390
-286 -748 -543 -1044 -51 -58 -224 -235 -274 -279 -107 -95 -305 -235 -428
-301 -44 -24 -83 -48 -86 -53 -3 -5 -10 -9 -15 -9 -5 -1 -43 -16 -84 -35 -360
-167 -708 -243 -1110 -243 -393 0 -717 69 -1080 230 -52 23 -101 46 -107 52
-7 6 -13 7 -13 2 0 -5 -4 -4 -8 2 -4 6 -45 32 -92 58 -47 26 -101 57 -120 69
-60 37 -241 177 -319 246 -40 36 -78 65 -85 63 -6 -2 -8 0 -4 4 4 3 -20 35
-53 70 -34 34 -68 72 -76 83 -8 12 -19 19 -24 15 -5 -3 -8 -1 -7 4 2 6 -5 18
-15 29 -9 10 -36 43 -60 73 -223 284 -393 630 -481 978 -61 245 -71 333 -71
647 0 245 3 296 23 410 74 426 234 807 476 1133 105 141 153 196 273 313 130
128 170 162 288 251 424 316 901 483 1460 512 80 4 235 -2 375 -15z"/>
<path d="M2210 5424 c-115 -31 -230 -146 -245 -248 -4 -23 -5 -129 -3 -236 3
-177 5 -199 25 -235 38 -71 91 -123 161 -157 61 -30 74 -33 162 -33 83 0 102
3 150 27 72 36 133 96 167 166 28 57 28 58 28 262 0 201 -1 206 -26 261 -52
111 -143 179 -265 199 -75 12 -87 12 -154 -6z m182 -263 c28 -31 28 -31 28
-182 0 -91 -4 -159 -11 -172 -32 -62 -122 -78 -178 -31 l-31 26 0 165 c0 93 4
173 10 183 31 58 135 64 182 11z"/>
<path d="M3129 5426 c-106 -28 -192 -106 -229 -205 -19 -50 -21 -73 -18 -260
3 -190 5 -210 26 -252 36 -74 87 -125 160 -161 62 -31 74 -33 167 -33 90 0
105 3 153 28 73 38 127 94 160 163 27 58 27 61 27 269 0 195 -2 213 -22 257
-25 55 -104 143 -148 165 -78 41 -189 53 -276 29z m184 -266 c27 -30 27 -31
27 -180 0 -90 -4 -159 -11 -174 -28 -60 -142 -73 -186 -21 -22 25 -23 34 -23
191 0 163 0 165 25 190 14 14 29 23 34 19 5 -3 13 0 17 6 13 22 87 3 117 -31z"/>
<path d="M4105 5430 c-11 -4 -31 -20 -45 -35 l-25 -27 -3 -389 -3 -389 33 -35
c43 -47 97 -56 146 -25 62 38 63 50 60 466 l-3 376 -37 34 c-39 35 -78 43
-123 24z"/>
<path d="M1271 4269 c-95 -29 -194 -127 -222 -220 -5 -19 -10 -123 -10 -231
l-1 -198 30 -63 c36 -77 89 -131 162 -166 48 -23 68 -26 155 -26 86 0 107 3
150 24 86 43 155 118 183 200 7 20 12 109 12 228 1 232 -7 266 -81 348 -73 79
-139 109 -253 112 -50 1 -106 -2 -125 -8z m181 -240 c41 -22 50 -62 46 -224
-3 -134 -5 -156 -22 -174 -38 -42 -131 -47 -169 -9 -32 31 -37 59 -37 198 0
139 5 167 37 198 30 30 99 35 145 11z"/>
<path d="M2190 4268 c-69 -20 -158 -97 -198 -173 -27 -50 -27 -50 -27 -275 l0
-225 28 -50 c39 -71 88 -119 154 -152 52 -25 68 -28 158 -28 89 0 106 3 156
27 100 49 167 134 188 236 16 75 14 324 -3 395 -26 109 -103 195 -215 237 -56
22 -179 26 -241 8z m183 -240 c43 -22 49 -48 45 -216 -3 -179 -8 -193 -76
-211 -45 -13 -86 -4 -117 25 -25 23 -25 24 -25 191 0 187 5 205 63 222 33 10
79 5 110 -11z"/>
<path d="M3162 4264 c-51 -35 -52 -45 -52 -446 0 -355 1 -375 20 -406 32 -52
101 -68 161 -36 57 29 59 47 59 444 0 397 -2 415 -59 444 -39 20 -100 20 -129
0z"/>
<path d="M4027 4266 c-84 -31 -157 -99 -200 -186 -21 -42 -22 -58 -22 -255 0
-206 0 -211 26 -266 33 -69 91 -129 161 -166 48 -25 62 -28 158 -28 101 0 108
1 168 34 70 38 120 90 154 160 22 43 23 58 23 261 0 200 -2 218 -22 262 -28
60 -103 136 -168 168 -62 30 -216 39 -278 16z m167 -230 c61 -25 66 -42 66
-221 0 -155 -1 -162 -23 -183 -55 -51 -134 -49 -177 5 -18 23 -20 40 -20 182
0 173 5 191 64 217 40 17 49 17 90 0z"/>
<path d="M4948 4265 c-89 -34 -158 -100 -201 -193 -20 -43 -22 -62 -22 -252 0
-201 1 -206 26 -261 34 -72 96 -134 168 -168 49 -23 69 -26 156 -26 120 0 171
20 251 100 82 82 94 126 94 355 0 221 -11 265 -86 349 -68 76 -136 105 -254
108 -64 2 -107 -2 -132 -12z m185 -234 c15 -6 32 -22 37 -36 6 -15 10 -97 10
-184 0 -156 0 -159 -25 -183 -47 -47 -134 -42 -175 9 -18 23 -20 40 -20 182 0
173 5 191 64 217 32 14 61 13 109 -5z"/>
<path d="M2265 3130 c-11 -4 -31 -20 -45 -35 l-25 -27 -3 -389 -3 -389 33 -35
c43 -47 97 -56 146 -25 62 38 63 50 60 466 l-3 376 -37 34 c-39 35 -78 43
-123 24z"/>
<path d="M3128 3127 c-87 -25 -170 -95 -216 -182 -27 -50 -27 -51 -27 -275 0
-216 1 -227 23 -268 80 -149 231 -221 392 -188 114 24 192 82 243 180 l32 61
0 220 c0 215 -1 221 -25 269 -35 68 -100 133 -166 163 -67 31 -185 40 -256 20z
m189 -271 c22 -26 23 -34 23 -185 0 -169 -3 -181 -57 -209 -47 -25 -130 -5
-153 37 -6 11 -10 88 -10 176 l0 157 30 30 c29 28 35 30 87 26 46 -4 61 -10
80 -32z"/>
<path d="M1275 3117 c-106 -35 -191 -119 -225 -221 -13 -42 -18 -362 -5 -435
4 -22 24 -68 46 -101 94 -146 300 -198 458 -114 81 42 152 123 172 196 6 22
10 126 9 236 0 185 -2 199 -24 248 -57 124 -167 195 -311 201 -48 2 -96 -2
-120 -10z m175 -242 c43 -22 52 -67 48 -233 -3 -143 -3 -144 -31 -167 -58 -51
-153 -38 -184 25 -18 35 -17 306 1 339 27 49 107 66 166 36z"/>
<path d="M4038 3116 c-105 -38 -183 -111 -218 -205 -19 -50 -21 -73 -18 -260
3 -195 4 -209 28 -256 33 -68 110 -140 179 -167 84 -32 206 -31 282 4 79 36
133 89 171 166 32 64 33 69 36 229 4 169 -6 260 -35 317 -21 41 -102 125 -138
143 -79 41 -214 55 -287 29z m171 -240 c15 -8 32 -26 39 -41 16 -34 16 -305 1
-339 -16 -34 -72 -60 -117 -52 -19 3 -48 18 -64 32 l-28 28 0 161 c0 172 6
196 54 215 33 13 84 11 115 -4z"/>
<path d="M5025 3120 c-11 -4 -31 -20 -45 -35 l-25 -27 -3 -389 -3 -389 33 -35
c43 -47 97 -56 146 -25 62 38 63 50 60 466 l-3 376 -37 34 c-39 35 -78 43
-123 24z"/>
<path d="M2209 1966 c-106 -28 -192 -106 -229 -205 -19 -50 -21 -73 -18 -260
3 -195 4 -209 28 -256 33 -68 110 -140 179 -167 84 -32 206 -31 282 4 79 36
133 89 171 166 32 64 33 69 36 229 4 169 -6 260 -35 317 -21 41 -102 125 -138
143 -78 41 -189 53 -276 29z m160 -240 c15 -8 32 -26 39 -41 16 -34 16 -305 1
-339 -27 -57 -135 -72 -185 -25 -24 22 -24 26 -24 194 0 165 1 172 23 192 12
11 29 23 37 26 29 10 81 7 109 -7z"/>
<path d="M3185 1970 c-11 -4 -31 -20 -45 -35 l-25 -27 -3 -389 -3 -389 33 -35
c43 -47 97 -56 146 -25 62 38 63 50 60 466 l-3 376 -37 34 c-39 35 -78 43
-123 24z"/>
<path d="M4048 1967 c-87 -25 -170 -95 -216 -182 -27 -50 -27 -51 -27 -265 0
-247 5 -269 89 -358 69 -74 148 -106 256 -106 72 -1 94 4 145 27 72 34 137 94
173 162 27 50 27 51 27 270 0 215 -1 221 -25 269 -35 68 -100 133 -166 163
-67 31 -185 40 -256 20z m162 -242 c16 -8 34 -24 40 -34 6 -11 10 -89 10 -179
0 -170 -3 -182 -57 -210 -47 -25 -130 -5 -153 37 -13 26 -13 326 0 351 24 46
105 63 160 35z"/>
</g>
</svg>
